/* XPM */
static char *editpad[] = {
"32 32 11 1",
"0 c None",
"1 c #000000",
"2 c #FFFFFF",
"3 c #00DF00",
"4 c #6BFF6B",
"5 c #00DF4A",
"6 c #009600",
"7 c #848284",
"8 c #C6C3C6",
"9 c #000084",
"a c #0000FF",
"00000000000110110110110110110000",
"00000000011211211211211211211100",
"00000000133144144144144144153610",
"00000000134444444444444444433171",
"00000001344444444444444444436171",
"00000001344444444444444444331871",
"00000013444411111111114444361871",
"00000013444444444444444443318871",
"00000134444111111111144443619971",
"00000134444444444444444433188871",
"00001344444444444444444436188871",
"00001344444444444444444331999971",
"00013444444444444444444361882871",
"00013444444444444444443318882871",
"0013444444444444444444361999a971",
"00134444444444444444433188822871",
"01344444444444444444436188822871",
"013444444444444444443319999aa971",
"13444444444444444444361888222871",
"13333333333333333333318888222871",
"16666666666666666666619999aaa971",
"01111111111111111111188882222871",
"00000000018888888888888822222871",
"000000000199999999999999aaaaa971",
"00000000018888888888888222222871",
"00000000018888888888888222222871",
"0000000001999999999999aaaaaaa971",
"00000000018888888888822222222871",
"00000000012222222222222222228871",
"00000000001888888888888888888771",
"00000000000177777777777777777710",
"00000000000011111111111111111100"
};
